<mxfile modified="2023-08-12T18:54:25.824Z" host="app.diagrams.net" agent="Mozilla/5.0 (Windows NT 10.0; Win64; x64) AppleWebKit/537.36 (KHTML, like Gecko) Chrome/115.0.0.0 Safari/537.36 Edg/115.0.1901.203" etag="O9yZSgUm0fl6ej7aBa88" version="21.6.8" type="github" pages="3">
  <diagram id="Ht1M8jgEwFfnCIfOTk4-" name="www.nativedsd.com">
    <mxGraphModel dx="1313" dy="774" grid="1" gridSize="10" guides="1" tooltips="1" connect="1" arrows="1" fold="1" page="1" pageScale="1" pageWidth="1169" pageHeight="827" math="0" shadow="0">
      <root>
        <mxCell id="0" />
        <mxCell id="1" parent="0" />
        <mxCell id="-QjtrjUzRDEMRZ5MF8oH-47" value="www.nativedsd.com" style="text;html=1;resizable=0;points=[];autosize=1;align=left;verticalAlign=top;spacingTop=-4;fontSize=30;fontStyle=1" parent="1" vertex="1">
          <mxGeometry x="56.5" y="64.5" width="310" height="40" as="geometry" />
        </mxCell>
        <mxCell id="SCVMTBWpLvtzJIhz15lM-1" value="" style="line;strokeWidth=2;html=1;fontSize=14;" parent="1" vertex="1">
          <mxGeometry x="52.5" y="139.5" width="1097.5" height="10" as="geometry" />
        </mxCell>
        <mxCell id="eXOmkHMhsEvXN0J38Dkd-1" value="" style="verticalLabelPosition=bottom;verticalAlign=top;html=1;shape=mxgraph.basic.patternFillRect;fillStyle=hor;step=5;fillStrokeWidth=0.2;fillStrokeColor=#dddddd;" parent="1" vertex="1">
          <mxGeometry x="120" y="200" width="320" height="250" as="geometry" />
        </mxCell>
        <mxCell id="eXOmkHMhsEvXN0J38Dkd-2" value="" style="sketch=0;points=[[0,0,0],[0.25,0,0],[0.5,0,0],[0.75,0,0],[1,0,0],[0,1,0],[0.25,1,0],[0.5,1,0],[0.75,1,0],[1,1,0],[0,0.25,0],[0,0.5,0],[0,0.75,0],[1,0.25,0],[1,0.5,0],[1,0.75,0]];outlineConnect=0;fontColor=#232F3E;gradientColor=#F78E04;gradientDirection=north;fillColor=#D05C17;strokeColor=#ffffff;dashed=0;verticalLabelPosition=bottom;verticalAlign=top;align=center;html=1;fontSize=12;fontStyle=0;aspect=fixed;shape=mxgraph.aws4.resourceIcon;resIcon=mxgraph.aws4.elastic_beanstalk;" parent="1" vertex="1">
          <mxGeometry x="130" y="210" width="78" height="78" as="geometry" />
        </mxCell>
        <mxCell id="eXOmkHMhsEvXN0J38Dkd-4" value="&lt;a style=&quot;background-color: rgb(255, 255, 255); border-collapse: separate; border-spacing: 0px; caption-side: top; cursor: auto; direction: ltr; empty-cells: show; font-variant-numeric: normal; font-variant-east-asian: normal; font-variant-alternates: normal; font-stretch: normal; hyphens: none; list-style: outside none disc; tab-size: 8; text-align: left; text-align-last: auto; text-shadow: none; visibility: visible; box-sizing: border-box; font-size: 14px; line-height: var(--font-body-m-line-height-i7xxvv,22px); font-family: &amp;quot;Amazon Ember&amp;quot;, &amp;quot;Helvetica Neue&amp;quot;, Roboto, Arial, sans-serif; -webkit-font-smoothing: inherit; display: inline; text-decoration-line: none; text-decoration-color: transparent; transition-property: color, text-decoration, -webkit-text-decoration; transition-duration: var(--motion-duration-refresh-only-medium-5flen2,165ms);&quot; data-awsui-focus-visible=&quot;true&quot; href=&quot;https://eu-west-1.console.aws.amazon.com/elasticbeanstalk/home?region=eu-west-1#/application/overview?applicationName=NativeDSD.com&quot; class=&quot;awsui_link_4c84z_16m2q_93 awsui_variant-secondary_4c84z_16m2q_140 awsui_font-size-body-m_4c84z_16m2q_414&quot;&gt;NativeDSD.com&lt;/a&gt;" style="swimlane;fontStyle=0;childLayout=stackLayout;horizontal=1;startSize=50;horizontalStack=0;resizeParent=1;resizeParentMax=0;resizeLast=0;collapsible=1;marginBottom=0;whiteSpace=wrap;html=1;fontSize=20;" parent="1" vertex="1">
          <mxGeometry x="230" y="210" width="200" height="230" as="geometry" />
        </mxCell>
        <mxCell id="eXOmkHMhsEvXN0J38Dkd-5" value="&lt;a style=&quot;background-color: rgb(255, 255, 255); border-collapse: separate; border-spacing: 0px; caption-side: top; cursor: pointer; direction: ltr; empty-cells: show; font-variant-numeric: normal; font-variant-east-asian: normal; font-variant-alternates: normal; font-stretch: normal; hyphens: none; list-style: outside none disc; tab-size: 8; text-align-last: auto; text-shadow: none; visibility: visible; box-sizing: border-box; font-size: 14px; line-height: var(--font-body-m-line-height-i7xxvv,22px); font-family: &amp;quot;Amazon Ember&amp;quot;, &amp;quot;Helvetica Neue&amp;quot;, Roboto, Arial, sans-serif; -webkit-font-smoothing: inherit; display: inline; text-decoration-color: currentcolor; transition-property: color, text-decoration, -webkit-text-decoration; transition-duration: var(--motion-duration-refresh-only-medium-5flen2,165ms);&quot; data-awsui-focus-visible=&quot;true&quot; href=&quot;https://eu-west-1.console.aws.amazon.com/elasticbeanstalk/home?region=eu-west-1#/environment/dashboard?environmentId=e-crsmhgcima&quot; class=&quot;awsui_link_4c84z_16m2q_93 awsui_variant-secondary_4c84z_16m2q_140 awsui_font-size-body-m_4c84z_16m2q_414&quot;&gt;DSD-Production&lt;/a&gt;" style="text;strokeColor=none;fillColor=none;align=left;verticalAlign=middle;spacingLeft=4;spacingRight=4;overflow=hidden;points=[[0,0.5],[1,0.5]];portConstraint=eastwest;rotatable=0;whiteSpace=wrap;html=1;" parent="eXOmkHMhsEvXN0J38Dkd-4" vertex="1">
          <mxGeometry y="50" width="200" height="60" as="geometry" />
        </mxCell>
        <mxCell id="eXOmkHMhsEvXN0J38Dkd-6" value="&lt;a style=&quot;background-color: rgb(255, 255, 255); border-collapse: separate; border-spacing: 0px; caption-side: top; cursor: auto; direction: ltr; empty-cells: show; font-variant-numeric: normal; font-variant-east-asian: normal; font-variant-alternates: normal; font-stretch: normal; hyphens: none; list-style: outside none disc; tab-size: 8; text-align-last: auto; text-shadow: none; visibility: visible; box-sizing: border-box; font-size: 14px; line-height: var(--font-body-m-line-height-i7xxvv,22px); font-family: &amp;quot;Amazon Ember&amp;quot;, &amp;quot;Helvetica Neue&amp;quot;, Roboto, Arial, sans-serif; -webkit-font-smoothing: inherit; display: inline; transition-property: color, text-decoration, -webkit-text-decoration; transition-duration: var(--motion-duration-refresh-only-medium-5flen2,165ms);&quot; data-awsui-focus-visible=&quot;true&quot; href=&quot;https://eu-west-1.console.aws.amazon.com/elasticbeanstalk/home?region=eu-west-1#/environment/dashboard?environmentId=e-te2m232mjt&quot; class=&quot;awsui_link_4c84z_16m2q_93 awsui_variant-secondary_4c84z_16m2q_140 awsui_font-size-body-m_4c84z_16m2q_414&quot;&gt;DSD-Staging&lt;/a&gt;" style="text;strokeColor=none;fillColor=none;align=left;verticalAlign=middle;spacingLeft=4;spacingRight=4;overflow=hidden;points=[[0,0.5],[1,0.5]];portConstraint=eastwest;rotatable=0;whiteSpace=wrap;html=1;" parent="eXOmkHMhsEvXN0J38Dkd-4" vertex="1">
          <mxGeometry y="110" width="200" height="60" as="geometry" />
        </mxCell>
        <mxCell id="eXOmkHMhsEvXN0J38Dkd-7" value="&lt;a style=&quot;background-color: rgb(255, 255, 255); border-collapse: separate; border-spacing: 0px; caption-side: top; cursor: auto; direction: ltr; empty-cells: show; font-variant-numeric: normal; font-variant-east-asian: normal; font-variant-alternates: normal; font-stretch: normal; hyphens: none; list-style: outside none disc; tab-size: 8; text-align-last: auto; text-shadow: none; visibility: visible; box-sizing: border-box; font-size: 14px; line-height: var(--font-body-m-line-height-i7xxvv,22px); font-family: &amp;quot;Amazon Ember&amp;quot;, &amp;quot;Helvetica Neue&amp;quot;, Roboto, Arial, sans-serif; -webkit-font-smoothing: inherit; display: inline; text-decoration-line: none; text-decoration-color: transparent; transition-property: color, text-decoration, -webkit-text-decoration; transition-duration: var(--motion-duration-refresh-only-medium-5flen2,165ms);&quot; data-awsui-focus-visible=&quot;true&quot; href=&quot;https://eu-west-1.console.aws.amazon.com/elasticbeanstalk/home?region=eu-west-1#/environment/dashboard?environmentId=e-cm3pduwfi7&quot; class=&quot;awsui_link_4c84z_16m2q_93 awsui_variant-secondary_4c84z_16m2q_140 awsui_font-size-body-m_4c84z_16m2q_414&quot;&gt;&lt;font color=&quot;#ff9191&quot;&gt;Production&lt;/font&gt;&lt;/a&gt;" style="text;strokeColor=none;fillColor=none;align=left;verticalAlign=middle;spacingLeft=4;spacingRight=4;overflow=hidden;points=[[0,0.5],[1,0.5]];portConstraint=eastwest;rotatable=0;whiteSpace=wrap;html=1;" parent="eXOmkHMhsEvXN0J38Dkd-4" vertex="1">
          <mxGeometry y="170" width="200" height="60" as="geometry" />
        </mxCell>
        <mxCell id="eXOmkHMhsEvXN0J38Dkd-31" style="edgeStyle=orthogonalEdgeStyle;rounded=0;orthogonalLoop=1;jettySize=auto;html=1;exitX=1;exitY=0.5;exitDx=0;exitDy=0;exitPerimeter=0;" parent="1" source="eXOmkHMhsEvXN0J38Dkd-8" target="eXOmkHMhsEvXN0J38Dkd-29" edge="1">
          <mxGeometry relative="1" as="geometry">
            <Array as="points">
              <mxPoint x="860" y="230" />
              <mxPoint x="860" y="280" />
              <mxPoint x="954" y="280" />
            </Array>
          </mxGeometry>
        </mxCell>
        <mxCell id="eXOmkHMhsEvXN0J38Dkd-8" value="" style="verticalLabelPosition=bottom;verticalAlign=top;html=1;shape=mxgraph.basic.patternFillRect;fillStyle=hor;step=5;fillStrokeWidth=0.2;fillStrokeColor=#dddddd;" parent="1" vertex="1">
          <mxGeometry x="530" y="170" width="290" height="120" as="geometry" />
        </mxCell>
        <mxCell id="eXOmkHMhsEvXN0J38Dkd-14" value="" style="sketch=0;points=[[0,0,0],[0.25,0,0],[0.5,0,0],[0.75,0,0],[1,0,0],[0,1,0],[0.25,1,0],[0.5,1,0],[0.75,1,0],[1,1,0],[0,0.25,0],[0,0.5,0],[0,0.75,0],[1,0.25,0],[1,0.5,0],[1,0.75,0]];outlineConnect=0;fontColor=#232F3E;gradientColor=#4D72F3;gradientDirection=north;fillColor=#3334B9;strokeColor=#ffffff;dashed=0;verticalLabelPosition=bottom;verticalAlign=top;align=center;html=1;fontSize=12;fontStyle=0;aspect=fixed;shape=mxgraph.aws4.resourceIcon;resIcon=mxgraph.aws4.aurora;" parent="1" vertex="1">
          <mxGeometry x="540" y="180" width="78" height="78" as="geometry" />
        </mxCell>
        <mxCell id="eXOmkHMhsEvXN0J38Dkd-16" value="&lt;a style=&quot;background-color: rgb(255, 255, 255); border-radius: 2px; padding: 0px; cursor: auto; border-collapse: separate; border-spacing: 0px; caption-side: top; direction: ltr; empty-cells: show; font-variant-numeric: normal; font-variant-east-asian: normal; font-variant-alternates: normal; font-stretch: normal; hyphens: none; list-style: outside none disc; tab-size: 8; text-align-last: auto; text-shadow: none; visibility: visible; box-sizing: border-box; line-height: var(--font-body-m-line-height-9vkzhc, 22px); font-family: &amp;quot;Amazon Ember&amp;quot;, &amp;quot;Helvetica Neue&amp;quot;, Roboto, Arial, sans-serif; -webkit-font-smoothing: inherit; display: inline; transition-property: color, text-decoration, -webkit-text-decoration; transition-duration: var(--motion-duration-refresh-only-medium-smx8a1, 165ms);&quot; href=&quot;https://eu-west-1.console.aws.amazon.com/rds/home?region=eu-west-1#database:id=nativedsd-website;is-cluster=true&quot; data-analytics-funnel-value=&quot;link376-1691862695155-2182&quot; aria-labelledby=&quot;&quot; class=&quot;awsui_link_4c84z_144la_93 awsui_variant-secondary_4c84z_144la_140 awsui_font-size-body-m_4c84z_144la_414&quot; data-testid=&quot;database-identifier&quot; data-analytics-type=&quot;eventDetail&quot; data-analytics=&quot;{&amp;quot;eventDetailName&amp;quot;:&amp;quot;DbListTableDbNameColumn&amp;quot;,&amp;quot;role&amp;quot;:&amp;quot;Regional cluster&amp;quot;}&quot; id=&quot;link-self377-1691862695155-1104&quot;&gt;&lt;font color=&quot;#0073bb&quot; style=&quot;font-size: 20px;&quot;&gt;nativedsd-website&lt;/font&gt;&lt;/a&gt;" style="text;html=1;strokeColor=none;fillColor=none;align=left;verticalAlign=middle;whiteSpace=wrap;rounded=0;fontSize=20;" parent="1" vertex="1">
          <mxGeometry x="640" y="180" width="170" height="30" as="geometry" />
        </mxCell>
        <mxCell id="eXOmkHMhsEvXN0J38Dkd-17" value="&lt;ul&gt;&lt;li style=&quot;font-size: 16px;&quot;&gt;nativedsd_wordpress&lt;/li&gt;&lt;/ul&gt;" style="text;strokeColor=none;fillColor=none;html=1;whiteSpace=wrap;verticalAlign=middle;overflow=hidden;" parent="1" vertex="1">
          <mxGeometry x="600" y="205" width="198" height="80" as="geometry" />
        </mxCell>
        <mxCell id="eXOmkHMhsEvXN0J38Dkd-25" style="edgeStyle=orthogonalEdgeStyle;rounded=0;orthogonalLoop=1;jettySize=auto;html=1;exitX=0.5;exitY=0;exitDx=0;exitDy=0;exitPerimeter=0;entryX=0.5;entryY=1;entryDx=0;entryDy=0;entryPerimeter=0;" parent="1" source="eXOmkHMhsEvXN0J38Dkd-19" target="eXOmkHMhsEvXN0J38Dkd-1" edge="1">
          <mxGeometry relative="1" as="geometry" />
        </mxCell>
        <mxCell id="eXOmkHMhsEvXN0J38Dkd-19" value="" style="sketch=0;points=[[0,0,0],[0.25,0,0],[0.5,0,0],[0.75,0,0],[1,0,0],[0,1,0],[0.25,1,0],[0.5,1,0],[0.75,1,0],[1,1,0],[0,0.25,0],[0,0.5,0],[0,0.75,0],[1,0.25,0],[1,0.5,0],[1,0.75,0]];outlineConnect=0;fontColor=#232F3E;gradientColor=#60A337;gradientDirection=north;fillColor=#277116;strokeColor=#ffffff;dashed=0;verticalLabelPosition=bottom;verticalAlign=top;align=center;html=1;fontSize=12;fontStyle=0;aspect=fixed;shape=mxgraph.aws4.resourceIcon;resIcon=mxgraph.aws4.s3;" parent="1" vertex="1">
          <mxGeometry x="120" y="600" width="78" height="78" as="geometry" />
        </mxCell>
        <mxCell id="eXOmkHMhsEvXN0J38Dkd-22" value="&lt;a style=&quot;background-color: rgb(255, 255, 255); text-decoration-line: none; font-family: &amp;quot;Amazon Ember&amp;quot;, &amp;quot;Helvetica Neue&amp;quot;, Roboto, Arial, sans-serif; font-size: 14px; text-align: left;&quot; href=&quot;https://s3.console.aws.amazon.com/s3/buckets/dsd-deployments?region=eu-west-1&quot; class=&quot;bucket-name&quot;&gt;dsd-deployments&lt;/a&gt;" style="text;html=1;strokeColor=none;fillColor=none;align=center;verticalAlign=middle;whiteSpace=wrap;rounded=0;" parent="1" vertex="1">
          <mxGeometry x="99" y="678" width="120" height="30" as="geometry" />
        </mxCell>
        <mxCell id="eXOmkHMhsEvXN0J38Dkd-26" value="Elastic Beanstalk container" style="points=[[0,0],[0.25,0],[0.5,0],[0.75,0],[1,0],[1,0.25],[1,0.5],[1,0.75],[1,1],[0.75,1],[0.5,1],[0.25,1],[0,1],[0,0.75],[0,0.5],[0,0.25]];outlineConnect=0;gradientColor=none;html=1;whiteSpace=wrap;fontSize=12;fontStyle=0;container=1;pointerEvents=0;collapsible=0;recursiveResize=0;shape=mxgraph.aws4.group;grIcon=mxgraph.aws4.group_elastic_beanstalk;strokeColor=#D86613;fillColor=none;verticalAlign=top;align=left;spacingLeft=30;fontColor=#D86613;dashed=0;" parent="1" vertex="1">
          <mxGeometry x="890" y="200" width="250" height="250" as="geometry" />
        </mxCell>
        <mxCell id="eXOmkHMhsEvXN0J38Dkd-27" value="Auto Scaling group" style="points=[[0,0],[0.25,0],[0.5,0],[0.75,0],[1,0],[1,0.25],[1,0.5],[1,0.75],[1,1],[0.75,1],[0.5,1],[0.25,1],[0,1],[0,0.75],[0,0.5],[0,0.25]];outlineConnect=0;gradientColor=none;html=1;whiteSpace=wrap;fontSize=12;fontStyle=0;container=1;pointerEvents=0;collapsible=0;recursiveResize=0;shape=mxgraph.aws4.groupCenter;grIcon=mxgraph.aws4.group_auto_scaling_group;grStroke=1;strokeColor=#D86613;fillColor=none;verticalAlign=top;align=center;fontColor=#D86613;dashed=1;spacingTop=25;" parent="eXOmkHMhsEvXN0J38Dkd-26" vertex="1">
          <mxGeometry x="10" y="40" width="230" height="200" as="geometry" />
        </mxCell>
        <mxCell id="eXOmkHMhsEvXN0J38Dkd-28" value="" style="sketch=0;points=[[0,0,0],[0.25,0,0],[0.5,0,0],[0.75,0,0],[1,0,0],[0,1,0],[0.25,1,0],[0.5,1,0],[0.75,1,0],[1,1,0],[0,0.25,0],[0,0.5,0],[0,0.75,0],[1,0.25,0],[1,0.5,0],[1,0.75,0]];outlineConnect=0;fontColor=#232F3E;gradientColor=#F78E04;gradientDirection=north;fillColor=#D05C17;strokeColor=#ffffff;dashed=0;verticalLabelPosition=bottom;verticalAlign=top;align=center;html=1;fontSize=12;fontStyle=0;aspect=fixed;shape=mxgraph.aws4.resourceIcon;resIcon=mxgraph.aws4.compute;" parent="eXOmkHMhsEvXN0J38Dkd-27" vertex="1">
          <mxGeometry y="162" width="38" height="38" as="geometry" />
        </mxCell>
        <mxCell id="eXOmkHMhsEvXN0J38Dkd-29" value="" style="sketch=0;outlineConnect=0;fontColor=#232F3E;gradientColor=none;fillColor=#D45B07;strokeColor=none;dashed=0;verticalLabelPosition=bottom;verticalAlign=top;align=center;html=1;fontSize=12;fontStyle=0;aspect=fixed;pointerEvents=1;shape=mxgraph.aws4.m6g_instance;" parent="eXOmkHMhsEvXN0J38Dkd-27" vertex="1">
          <mxGeometry x="30" y="70" width="48" height="48" as="geometry" />
        </mxCell>
        <mxCell id="eXOmkHMhsEvXN0J38Dkd-30" value="" style="sketch=0;outlineConnect=0;fontColor=#232F3E;gradientColor=none;fillColor=#D45B07;strokeColor=none;dashed=0;verticalLabelPosition=bottom;verticalAlign=top;align=center;html=1;fontSize=12;fontStyle=0;aspect=fixed;pointerEvents=1;shape=mxgraph.aws4.t4g_instance;" parent="eXOmkHMhsEvXN0J38Dkd-27" vertex="1">
          <mxGeometry x="150" y="71" width="48" height="48" as="geometry" />
        </mxCell>
        <UserObject label="DSD-Production" link="https://eu-west-1.console.aws.amazon.com/ec2/home?region=eu-west-1#InstanceDetails:instanceId=i-0a0a4c27cbc996429" id="eXOmkHMhsEvXN0J38Dkd-33">
          <mxCell style="text;html=1;strokeColor=none;fillColor=none;whiteSpace=wrap;align=center;verticalAlign=middle;fontColor=#0000EE;fontStyle=4;" parent="eXOmkHMhsEvXN0J38Dkd-27" vertex="1">
            <mxGeometry x="4" y="110" width="100" height="40" as="geometry" />
          </mxCell>
        </UserObject>
        <UserObject label="DSD-Staging" link="https://eu-west-1.console.aws.amazon.com/ec2/home?region=eu-west-1#InstanceDetails:instanceId=i-00c0c0cfb5246ed2d" id="eXOmkHMhsEvXN0J38Dkd-34">
          <mxCell style="text;html=1;strokeColor=none;fillColor=none;whiteSpace=wrap;align=center;verticalAlign=middle;fontColor=#0000EE;fontStyle=4;" parent="eXOmkHMhsEvXN0J38Dkd-27" vertex="1">
            <mxGeometry x="134" y="40" width="80" height="40" as="geometry" />
          </mxCell>
        </UserObject>
        <mxCell id="eXOmkHMhsEvXN0J38Dkd-35" value="eu-west-1" style="text;strokeColor=none;fillColor=none;html=1;fontSize=24;fontStyle=1;verticalAlign=middle;align=center;" parent="1" vertex="1">
          <mxGeometry x="56.5" y="99.5" width="100" height="40" as="geometry" />
        </mxCell>
        <mxCell id="eXOmkHMhsEvXN0J38Dkd-40" style="edgeStyle=orthogonalEdgeStyle;rounded=0;orthogonalLoop=1;jettySize=auto;html=1;exitX=0.5;exitY=0;exitDx=0;exitDy=0;exitPerimeter=0;" parent="1" source="eXOmkHMhsEvXN0J38Dkd-36" target="eXOmkHMhsEvXN0J38Dkd-39" edge="1">
          <mxGeometry relative="1" as="geometry" />
        </mxCell>
        <mxCell id="eXOmkHMhsEvXN0J38Dkd-36" value="" style="sketch=0;points=[[0,0,0],[0.25,0,0],[0.5,0,0],[0.75,0,0],[1,0,0],[0,1,0],[0.25,1,0],[0.5,1,0],[0.75,1,0],[1,1,0],[0,0.25,0],[0,0.5,0],[0,0.75,0],[1,0.25,0],[1,0.5,0],[1,0.75,0]];outlineConnect=0;fontColor=#232F3E;gradientColor=#60A337;gradientDirection=north;fillColor=#277116;strokeColor=#ffffff;dashed=0;verticalLabelPosition=bottom;verticalAlign=top;align=center;html=1;fontSize=12;fontStyle=0;aspect=fixed;shape=mxgraph.aws4.resourceIcon;resIcon=mxgraph.aws4.s3;" parent="1" vertex="1">
          <mxGeometry x="621" y="690" width="78" height="78" as="geometry" />
        </mxCell>
        <mxCell id="eXOmkHMhsEvXN0J38Dkd-37" value="&lt;a style=&quot;background-color: rgb(255, 255, 255); text-decoration-line: none; font-family: &amp;quot;Amazon Ember&amp;quot;, &amp;quot;Helvetica Neue&amp;quot;, Roboto, Arial, sans-serif; font-size: 14px; text-align: left;&quot; href=&quot;https://s3.console.aws.amazon.com/s3/buckets/nativedsd-media?region=eu-west-1&quot; class=&quot;bucket-name&quot;&gt;nativedsd-media&lt;/a&gt;" style="text;html=1;strokeColor=none;fillColor=none;align=center;verticalAlign=middle;whiteSpace=wrap;rounded=0;" parent="1" vertex="1">
          <mxGeometry x="600" y="768" width="120" height="30" as="geometry" />
        </mxCell>
        <mxCell id="eXOmkHMhsEvXN0J38Dkd-41" style="edgeStyle=orthogonalEdgeStyle;rounded=0;orthogonalLoop=1;jettySize=auto;html=1;exitX=0.5;exitY=0;exitDx=0;exitDy=0;exitPerimeter=0;entryX=0.5;entryY=1;entryDx=0;entryDy=0;" parent="1" source="eXOmkHMhsEvXN0J38Dkd-38" target="eXOmkHMhsEvXN0J38Dkd-33" edge="1">
          <mxGeometry relative="1" as="geometry">
            <Array as="points">
              <mxPoint x="801" y="490" />
              <mxPoint x="954" y="490" />
            </Array>
          </mxGeometry>
        </mxCell>
        <mxCell id="eXOmkHMhsEvXN0J38Dkd-38" value="" style="sketch=0;points=[[0,0,0],[0.25,0,0],[0.5,0,0],[0.75,0,0],[1,0,0],[0,1,0],[0.25,1,0],[0.5,1,0],[0.75,1,0],[1,1,0],[0,0.25,0],[0,0.5,0],[0,0.75,0],[1,0.25,0],[1,0.5,0],[1,0.75,0]];outlineConnect=0;fontColor=#232F3E;gradientColor=#945DF2;gradientDirection=north;fillColor=#5A30B5;strokeColor=#ffffff;dashed=0;verticalLabelPosition=bottom;verticalAlign=top;align=center;html=1;fontSize=12;fontStyle=0;aspect=fixed;shape=mxgraph.aws4.resourceIcon;resIcon=mxgraph.aws4.cloudfront;" parent="1" vertex="1">
          <mxGeometry x="762" y="520" width="78" height="78" as="geometry" />
        </mxCell>
        <UserObject label="Media files" link="https://us-east-1.console.aws.amazon.com/cloudfront/v3/home?region=eu-west-1#/distributions/E209H0S8363BU0" id="eXOmkHMhsEvXN0J38Dkd-39">
          <mxCell style="text;html=1;strokeColor=none;fillColor=none;whiteSpace=wrap;align=center;verticalAlign=middle;fontColor=#0000EE;fontStyle=4;fontSize=15;" parent="1" vertex="1">
            <mxGeometry x="756.5" y="600" width="89" height="40" as="geometry" />
          </mxCell>
        </UserObject>
        <mxCell id="eXOmkHMhsEvXN0J38Dkd-44" style="edgeStyle=orthogonalEdgeStyle;rounded=0;orthogonalLoop=1;jettySize=auto;html=1;exitX=0.5;exitY=0;exitDx=0;exitDy=0;exitPerimeter=0;entryX=0.75;entryY=1;entryDx=0;entryDy=0;" parent="1" source="eXOmkHMhsEvXN0J38Dkd-42" target="eXOmkHMhsEvXN0J38Dkd-33" edge="1">
          <mxGeometry relative="1" as="geometry">
            <Array as="points">
              <mxPoint x="999" y="490" />
              <mxPoint x="979" y="490" />
            </Array>
          </mxGeometry>
        </mxCell>
        <mxCell id="eXOmkHMhsEvXN0J38Dkd-42" value="" style="sketch=0;points=[[0,0,0],[0.25,0,0],[0.5,0,0],[0.75,0,0],[1,0,0],[0,1,0],[0.25,1,0],[0.5,1,0],[0.75,1,0],[1,1,0],[0,0.25,0],[0,0.5,0],[0,0.75,0],[1,0.25,0],[1,0.5,0],[1,0.75,0]];outlineConnect=0;fontColor=#232F3E;gradientColor=#945DF2;gradientDirection=north;fillColor=#5A30B5;strokeColor=#ffffff;dashed=0;verticalLabelPosition=bottom;verticalAlign=top;align=center;html=1;fontSize=12;fontStyle=0;aspect=fixed;shape=mxgraph.aws4.resourceIcon;resIcon=mxgraph.aws4.cloudfront;" parent="1" vertex="1">
          <mxGeometry x="960" y="520" width="78" height="78" as="geometry" />
        </mxCell>
        <UserObject label="Assets" link="https://us-east-1.console.aws.amazon.com/cloudfront/v3/home?region=eu-west-1#/distributions/E15BNSFWWELHEK" id="eXOmkHMhsEvXN0J38Dkd-43">
          <mxCell style="text;html=1;strokeColor=none;fillColor=none;whiteSpace=wrap;align=center;verticalAlign=middle;fontColor=#0000EE;fontStyle=4;fontSize=15;" parent="1" vertex="1">
            <mxGeometry x="954.5" y="598" width="89" height="40" as="geometry" />
          </mxCell>
        </UserObject>
        <mxCell id="y5h0_kul2xSg-S_BtRaV-8" style="edgeStyle=orthogonalEdgeStyle;rounded=0;orthogonalLoop=1;jettySize=auto;html=1;exitX=1;exitY=0.5;exitDx=0;exitDy=0;exitPerimeter=0;entryX=0.5;entryY=1.021;entryDx=0;entryDy=0;entryPerimeter=0;" edge="1" parent="1" source="y5h0_kul2xSg-S_BtRaV-1" target="eXOmkHMhsEvXN0J38Dkd-30">
          <mxGeometry relative="1" as="geometry">
            <mxPoint x="1074" y="370" as="targetPoint" />
            <Array as="points">
              <mxPoint x="860" y="380" />
              <mxPoint x="860" y="470" />
              <mxPoint x="1074" y="470" />
            </Array>
          </mxGeometry>
        </mxCell>
        <mxCell id="y5h0_kul2xSg-S_BtRaV-1" value="" style="verticalLabelPosition=bottom;verticalAlign=top;html=1;shape=mxgraph.basic.patternFillRect;fillStyle=hor;step=5;fillStrokeWidth=0.2;fillStrokeColor=#dddddd;" vertex="1" parent="1">
          <mxGeometry x="530" y="320" width="290" height="120" as="geometry" />
        </mxCell>
        <mxCell id="y5h0_kul2xSg-S_BtRaV-2" value="" style="sketch=0;points=[[0,0,0],[0.25,0,0],[0.5,0,0],[0.75,0,0],[1,0,0],[0,1,0],[0.25,1,0],[0.5,1,0],[0.75,1,0],[1,1,0],[0,0.25,0],[0,0.5,0],[0,0.75,0],[1,0.25,0],[1,0.5,0],[1,0.75,0]];outlineConnect=0;fontColor=#232F3E;gradientColor=#4D72F3;gradientDirection=north;fillColor=#3334B9;strokeColor=#ffffff;dashed=0;verticalLabelPosition=bottom;verticalAlign=top;align=center;html=1;fontSize=12;fontStyle=0;aspect=fixed;shape=mxgraph.aws4.resourceIcon;resIcon=mxgraph.aws4.aurora;" vertex="1" parent="1">
          <mxGeometry x="540" y="330" width="78" height="78" as="geometry" />
        </mxCell>
        <mxCell id="y5h0_kul2xSg-S_BtRaV-3" value="&lt;a style=&quot;background-color: rgb(241, 250, 255); border-radius: 2px; color: var(--color-text-link-hover-z15m9s, #0073bb); padding: 0px; text-decoration-line: underline; cursor: pointer; border-collapse: separate; border-spacing: 0px; caption-side: top; direction: ltr; empty-cells: show; font-variant-numeric: normal; font-variant-east-asian: normal; font-variant-alternates: normal; font-stretch: normal; hyphens: none; list-style: outside none disc; tab-size: 8; text-align-last: auto; text-shadow: none; visibility: visible; box-sizing: border-box; font-size: 20px; line-height: var(--font-body-m-line-height-9vkzhc, 22px); font-family: &amp;quot;Amazon Ember&amp;quot;, &amp;quot;Helvetica Neue&amp;quot;, Roboto, Arial, sans-serif; -webkit-font-smoothing: inherit; display: inline; transition-property: color, text-decoration, -webkit-text-decoration; transition-duration: var(--motion-duration-refresh-only-medium-smx8a1, 165ms);&quot; tabindex=&quot;0&quot; role=&quot;button&quot; data-analytics-funnel-value=&quot;link220-1691794979420-6335&quot; aria-labelledby=&quot;&quot; class=&quot;awsui_link_4c84z_144la_93 awsui_variant-secondary_4c84z_144la_140 awsui_font-size-body-m_4c84z_144la_414&quot; data-testid=&quot;database-identifier&quot; data-analytics-type=&quot;eventDetail&quot; data-analytics=&quot;{&amp;quot;eventDetailName&amp;quot;:&amp;quot;DbListTableDbNameColumn&amp;quot;,&amp;quot;role&amp;quot;:&amp;quot;Regional cluster&amp;quot;}&quot; id=&quot;link-self221-1691794979420-311&quot;&gt;nativedsd&lt;/a&gt;" style="text;html=1;strokeColor=none;fillColor=none;align=left;verticalAlign=middle;whiteSpace=wrap;rounded=0;fontSize=20;" vertex="1" parent="1">
          <mxGeometry x="640" y="330" width="100" height="30" as="geometry" />
        </mxCell>
        <mxCell id="y5h0_kul2xSg-S_BtRaV-4" value="&lt;ul&gt;&lt;li style=&quot;font-size: 16px;&quot;&gt;dsd_development&lt;br&gt;&lt;/li&gt;&lt;/ul&gt;" style="text;strokeColor=none;fillColor=none;html=1;whiteSpace=wrap;verticalAlign=middle;overflow=hidden;" vertex="1" parent="1">
          <mxGeometry x="600" y="355" width="198" height="80" as="geometry" />
        </mxCell>
        <mxCell id="y5h0_kul2xSg-S_BtRaV-5" style="edgeStyle=orthogonalEdgeStyle;rounded=0;orthogonalLoop=1;jettySize=auto;html=1;entryX=0;entryY=0.5;entryDx=0;entryDy=0;entryPerimeter=0;" edge="1" parent="1" target="y5h0_kul2xSg-S_BtRaV-1">
          <mxGeometry relative="1" as="geometry">
            <mxPoint x="320" y="352" as="sourcePoint" />
            <Array as="points">
              <mxPoint x="320" y="353" />
              <mxPoint x="460" y="353" />
              <mxPoint x="460" y="380" />
            </Array>
          </mxGeometry>
        </mxCell>
        <mxCell id="y5h0_kul2xSg-S_BtRaV-6" style="edgeStyle=orthogonalEdgeStyle;rounded=0;orthogonalLoop=1;jettySize=auto;html=1;entryX=0;entryY=0.5;entryDx=0;entryDy=0;entryPerimeter=0;exitX=0.696;exitY=0.366;exitDx=0;exitDy=0;exitPerimeter=0;" edge="1" parent="1" source="eXOmkHMhsEvXN0J38Dkd-1" target="eXOmkHMhsEvXN0J38Dkd-8">
          <mxGeometry relative="1" as="geometry">
            <mxPoint x="470" y="310" as="sourcePoint" />
          </mxGeometry>
        </mxCell>
      </root>
    </mxGraphModel>
  </diagram>
  <diagram name="gear.nativedsd.com" id="ZpfcXiMBDosBRXZQOW7k">
    <mxGraphModel dx="1615" dy="952" grid="1" gridSize="10" guides="1" tooltips="1" connect="1" arrows="1" fold="1" page="1" pageScale="1" pageWidth="1169" pageHeight="827" math="0" shadow="0">
      <root>
        <mxCell id="9bl6LSLvuRnka31dkk5S-0" />
        <mxCell id="9bl6LSLvuRnka31dkk5S-1" parent="9bl6LSLvuRnka31dkk5S-0" />
        <mxCell id="9bl6LSLvuRnka31dkk5S-2" value="gear.nativedsd.com" style="text;html=1;resizable=0;points=[];autosize=1;align=left;verticalAlign=top;spacingTop=-4;fontSize=30;fontStyle=1" vertex="1" parent="9bl6LSLvuRnka31dkk5S-1">
          <mxGeometry x="56.5" y="64.5" width="300" height="40" as="geometry" />
        </mxCell>
        <mxCell id="9bl6LSLvuRnka31dkk5S-3" value="" style="line;strokeWidth=2;html=1;fontSize=14;" vertex="1" parent="9bl6LSLvuRnka31dkk5S-1">
          <mxGeometry x="52.5" y="139.5" width="1097.5" height="10" as="geometry" />
        </mxCell>
        <mxCell id="9bl6LSLvuRnka31dkk5S-4" style="edgeStyle=orthogonalEdgeStyle;rounded=0;orthogonalLoop=1;jettySize=auto;html=1;exitX=1;exitY=0.5;exitDx=0;exitDy=0;exitPerimeter=0;entryX=0;entryY=0.5;entryDx=0;entryDy=0;entryPerimeter=0;" edge="1" parent="9bl6LSLvuRnka31dkk5S-1" source="9bl6LSLvuRnka31dkk5S-5" target="9bl6LSLvuRnka31dkk5S-12">
          <mxGeometry relative="1" as="geometry" />
        </mxCell>
        <mxCell id="9bl6LSLvuRnka31dkk5S-5" value="" style="verticalLabelPosition=bottom;verticalAlign=top;html=1;shape=mxgraph.basic.patternFillRect;fillStyle=hor;step=5;fillStrokeWidth=0.2;fillStrokeColor=#dddddd;" vertex="1" parent="9bl6LSLvuRnka31dkk5S-1">
          <mxGeometry x="120" y="200" width="320" height="250" as="geometry" />
        </mxCell>
        <mxCell id="9bl6LSLvuRnka31dkk5S-6" value="" style="sketch=0;points=[[0,0,0],[0.25,0,0],[0.5,0,0],[0.75,0,0],[1,0,0],[0,1,0],[0.25,1,0],[0.5,1,0],[0.75,1,0],[1,1,0],[0,0.25,0],[0,0.5,0],[0,0.75,0],[1,0.25,0],[1,0.5,0],[1,0.75,0]];outlineConnect=0;fontColor=#232F3E;gradientColor=#F78E04;gradientDirection=north;fillColor=#D05C17;strokeColor=#ffffff;dashed=0;verticalLabelPosition=bottom;verticalAlign=top;align=center;html=1;fontSize=12;fontStyle=0;aspect=fixed;shape=mxgraph.aws4.resourceIcon;resIcon=mxgraph.aws4.elastic_beanstalk;" vertex="1" parent="9bl6LSLvuRnka31dkk5S-1">
          <mxGeometry x="130" y="210" width="78" height="78" as="geometry" />
        </mxCell>
        <mxCell id="9bl6LSLvuRnka31dkk5S-7" value="&lt;a style=&quot;background-color: rgb(255, 255, 255); border-collapse: separate; border-spacing: 0px; caption-side: top; cursor: auto; direction: ltr; empty-cells: show; font-variant-numeric: normal; font-variant-east-asian: normal; font-variant-alternates: normal; font-stretch: normal; hyphens: none; list-style: outside none disc; tab-size: 8; text-align: left; text-align-last: auto; text-shadow: none; visibility: visible; box-sizing: border-box; font-size: 14px; line-height: var(--font-body-m-line-height-i7xxvv,22px); font-family: &amp;quot;Amazon Ember&amp;quot;, &amp;quot;Helvetica Neue&amp;quot;, Roboto, Arial, sans-serif; -webkit-font-smoothing: inherit; display: inline; text-decoration-line: none; text-decoration-color: transparent; transition-property: color, text-decoration, -webkit-text-decoration; transition-duration: var(--motion-duration-refresh-only-medium-5flen2,165ms);&quot; data-awsui-focus-visible=&quot;true&quot; href=&quot;https://eu-west-1.console.aws.amazon.com/elasticbeanstalk/home?region=eu-west-1#/application/overview?applicationName=gear.nativedsd.com&quot; class=&quot;awsui_link_4c84z_16m2q_93 awsui_variant-secondary_4c84z_16m2q_140 awsui_font-size-body-m_4c84z_16m2q_414&quot;&gt;gear.nativedsd.com&lt;/a&gt;" style="swimlane;fontStyle=0;childLayout=stackLayout;horizontal=1;startSize=50;horizontalStack=0;resizeParent=1;resizeParentMax=0;resizeLast=0;collapsible=1;marginBottom=0;whiteSpace=wrap;html=1;fontSize=20;" vertex="1" parent="9bl6LSLvuRnka31dkk5S-1">
          <mxGeometry x="230" y="210" width="200" height="170" as="geometry" />
        </mxCell>
        <mxCell id="9bl6LSLvuRnka31dkk5S-8" value="&lt;a style=&quot;background-color: rgb(255, 255, 255); border-collapse: separate; border-spacing: 0px; caption-side: top; cursor: auto; direction: ltr; empty-cells: show; font-variant-numeric: normal; font-variant-east-asian: normal; font-variant-alternates: normal; font-stretch: normal; hyphens: none; list-style: outside none disc; tab-size: 8; text-align-last: auto; text-shadow: none; visibility: visible; box-sizing: border-box; font-size: 14px; line-height: var(--font-body-m-line-height-i7xxvv,22px); font-family: &amp;quot;Amazon Ember&amp;quot;, &amp;quot;Helvetica Neue&amp;quot;, Roboto, Arial, sans-serif; -webkit-font-smoothing: inherit; display: inline; transition-property: color, text-decoration, -webkit-text-decoration; transition-duration: var(--motion-duration-refresh-only-medium-5flen2,165ms);&quot; data-awsui-focus-visible=&quot;true&quot; href=&quot;https://eu-west-1.console.aws.amazon.com/elasticbeanstalk/home?region=eu-west-1#/environment/dashboard?environmentId=e-cudk6ekvaw&quot; class=&quot;awsui_link_4c84z_16m2q_93 awsui_variant-secondary_4c84z_16m2q_140 awsui_font-size-body-m_4c84z_16m2q_414&quot;&gt;Production-Gear&lt;/a&gt;" style="text;strokeColor=none;fillColor=none;align=left;verticalAlign=middle;spacingLeft=4;spacingRight=4;overflow=hidden;points=[[0,0.5],[1,0.5]];portConstraint=eastwest;rotatable=0;whiteSpace=wrap;html=1;" vertex="1" parent="9bl6LSLvuRnka31dkk5S-7">
          <mxGeometry y="50" width="200" height="60" as="geometry" />
        </mxCell>
        <mxCell id="9bl6LSLvuRnka31dkk5S-9" value="&lt;a style=&quot;background-color: rgb(255, 255, 255); border-collapse: separate; border-spacing: 0px; caption-side: top; cursor: auto; direction: ltr; empty-cells: show; font-variant-numeric: normal; font-variant-east-asian: normal; font-variant-alternates: normal; font-stretch: normal; hyphens: none; list-style: outside none disc; tab-size: 8; text-align-last: auto; text-shadow: none; visibility: visible; box-sizing: border-box; font-size: 14px; line-height: var(--font-body-m-line-height-i7xxvv,22px); font-family: &amp;quot;Amazon Ember&amp;quot;, &amp;quot;Helvetica Neue&amp;quot;, Roboto, Arial, sans-serif; -webkit-font-smoothing: inherit; display: inline; transition-property: color, text-decoration, -webkit-text-decoration; transition-duration: var(--motion-duration-refresh-only-medium-5flen2,165ms);&quot; data-awsui-focus-visible=&quot;true&quot; href=&quot;https://eu-west-1.console.aws.amazon.com/elasticbeanstalk/home?region=eu-west-1#/environment/dashboard?environmentId=e-hwm7empzqw&quot; class=&quot;awsui_link_4c84z_16m2q_93 awsui_variant-secondary_4c84z_16m2q_140 awsui_font-size-body-m_4c84z_16m2q_414&quot;&gt;Development-Gear&lt;/a&gt;" style="text;strokeColor=none;fillColor=none;align=left;verticalAlign=middle;spacingLeft=4;spacingRight=4;overflow=hidden;points=[[0,0.5],[1,0.5]];portConstraint=eastwest;rotatable=0;whiteSpace=wrap;html=1;" vertex="1" parent="9bl6LSLvuRnka31dkk5S-7">
          <mxGeometry y="110" width="200" height="60" as="geometry" />
        </mxCell>
        <mxCell id="9bl6LSLvuRnka31dkk5S-11" style="edgeStyle=orthogonalEdgeStyle;rounded=0;orthogonalLoop=1;jettySize=auto;html=1;exitX=1;exitY=0.5;exitDx=0;exitDy=0;exitPerimeter=0;entryX=0;entryY=0.5;entryDx=0;entryDy=0;" edge="1" parent="9bl6LSLvuRnka31dkk5S-1" source="9bl6LSLvuRnka31dkk5S-12" target="9bl6LSLvuRnka31dkk5S-19">
          <mxGeometry relative="1" as="geometry" />
        </mxCell>
        <mxCell id="9bl6LSLvuRnka31dkk5S-12" value="" style="verticalLabelPosition=bottom;verticalAlign=top;html=1;shape=mxgraph.basic.patternFillRect;fillStyle=hor;step=5;fillStrokeWidth=0.2;fillStrokeColor=#dddddd;" vertex="1" parent="9bl6LSLvuRnka31dkk5S-1">
          <mxGeometry x="520" y="200" width="290" height="160" as="geometry" />
        </mxCell>
        <mxCell id="9bl6LSLvuRnka31dkk5S-13" value="" style="sketch=0;points=[[0,0,0],[0.25,0,0],[0.5,0,0],[0.75,0,0],[1,0,0],[0,1,0],[0.25,1,0],[0.5,1,0],[0.75,1,0],[1,1,0],[0,0.25,0],[0,0.5,0],[0,0.75,0],[1,0.25,0],[1,0.5,0],[1,0.75,0]];outlineConnect=0;fontColor=#232F3E;gradientColor=#4D72F3;gradientDirection=north;fillColor=#3334B9;strokeColor=#ffffff;dashed=0;verticalLabelPosition=bottom;verticalAlign=top;align=center;html=1;fontSize=12;fontStyle=0;aspect=fixed;shape=mxgraph.aws4.resourceIcon;resIcon=mxgraph.aws4.aurora;" vertex="1" parent="9bl6LSLvuRnka31dkk5S-1">
          <mxGeometry x="530" y="210" width="78" height="78" as="geometry" />
        </mxCell>
        <mxCell id="9bl6LSLvuRnka31dkk5S-14" value="&lt;a style=&quot;background-color: rgb(241, 250, 255); border-radius: 2px; color: var(--color-text-link-hover-z15m9s, #0073bb); padding: 0px; text-decoration-line: underline; cursor: pointer; border-collapse: separate; border-spacing: 0px; caption-side: top; direction: ltr; empty-cells: show; font-variant-numeric: normal; font-variant-east-asian: normal; font-variant-alternates: normal; font-stretch: normal; hyphens: none; list-style: outside none disc; tab-size: 8; text-align-last: auto; text-shadow: none; visibility: visible; box-sizing: border-box; font-size: 20px; line-height: var(--font-body-m-line-height-9vkzhc, 22px); font-family: &amp;quot;Amazon Ember&amp;quot;, &amp;quot;Helvetica Neue&amp;quot;, Roboto, Arial, sans-serif; -webkit-font-smoothing: inherit; display: inline; transition-property: color, text-decoration, -webkit-text-decoration; transition-duration: var(--motion-duration-refresh-only-medium-smx8a1, 165ms);&quot; tabindex=&quot;0&quot; role=&quot;button&quot; data-analytics-funnel-value=&quot;link220-1691794979420-6335&quot; aria-labelledby=&quot;&quot; class=&quot;awsui_link_4c84z_144la_93 awsui_variant-secondary_4c84z_144la_140 awsui_font-size-body-m_4c84z_144la_414&quot; data-testid=&quot;database-identifier&quot; data-analytics-type=&quot;eventDetail&quot; data-analytics=&quot;{&amp;quot;eventDetailName&amp;quot;:&amp;quot;DbListTableDbNameColumn&amp;quot;,&amp;quot;role&amp;quot;:&amp;quot;Regional cluster&amp;quot;}&quot; id=&quot;link-self221-1691794979420-311&quot;&gt;nativedsd&lt;/a&gt;" style="text;html=1;strokeColor=none;fillColor=none;align=left;verticalAlign=middle;whiteSpace=wrap;rounded=0;fontSize=20;" vertex="1" parent="9bl6LSLvuRnka31dkk5S-1">
          <mxGeometry x="640" y="234" width="100" height="30" as="geometry" />
        </mxCell>
        <mxCell id="9bl6LSLvuRnka31dkk5S-15" value="&lt;ul&gt;&lt;li style=&quot;font-size: 16px;&quot;&gt;nativedsd_gear&lt;br&gt;&lt;/li&gt;&lt;li style=&quot;font-size: 16px;&quot;&gt;&lt;font color=&quot;#ff9191&quot;&gt;nativedsd_wpdb&lt;/font&gt;&lt;/li&gt;&lt;/ul&gt;" style="text;strokeColor=none;fillColor=none;html=1;whiteSpace=wrap;verticalAlign=middle;overflow=hidden;" vertex="1" parent="9bl6LSLvuRnka31dkk5S-1">
          <mxGeometry x="600" y="285" width="198" height="80" as="geometry" />
        </mxCell>
        <mxCell id="9bl6LSLvuRnka31dkk5S-16" style="edgeStyle=orthogonalEdgeStyle;rounded=0;orthogonalLoop=1;jettySize=auto;html=1;exitX=0.5;exitY=0;exitDx=0;exitDy=0;exitPerimeter=0;entryX=0.5;entryY=1;entryDx=0;entryDy=0;entryPerimeter=0;" edge="1" parent="9bl6LSLvuRnka31dkk5S-1" source="9bl6LSLvuRnka31dkk5S-17" target="9bl6LSLvuRnka31dkk5S-5">
          <mxGeometry relative="1" as="geometry" />
        </mxCell>
        <mxCell id="9bl6LSLvuRnka31dkk5S-17" value="" style="sketch=0;points=[[0,0,0],[0.25,0,0],[0.5,0,0],[0.75,0,0],[1,0,0],[0,1,0],[0.25,1,0],[0.5,1,0],[0.75,1,0],[1,1,0],[0,0.25,0],[0,0.5,0],[0,0.75,0],[1,0.25,0],[1,0.5,0],[1,0.75,0]];outlineConnect=0;fontColor=#232F3E;gradientColor=#60A337;gradientDirection=north;fillColor=#277116;strokeColor=#ffffff;dashed=0;verticalLabelPosition=bottom;verticalAlign=top;align=center;html=1;fontSize=12;fontStyle=0;aspect=fixed;shape=mxgraph.aws4.resourceIcon;resIcon=mxgraph.aws4.s3;" vertex="1" parent="9bl6LSLvuRnka31dkk5S-1">
          <mxGeometry x="120" y="600" width="78" height="78" as="geometry" />
        </mxCell>
        <mxCell id="9bl6LSLvuRnka31dkk5S-18" value="&lt;a style=&quot;background-color: rgb(255, 255, 255); text-decoration-line: none; font-family: &amp;quot;Amazon Ember&amp;quot;, &amp;quot;Helvetica Neue&amp;quot;, Roboto, Arial, sans-serif; font-size: 14px; text-align: left;&quot; href=&quot;https://s3.console.aws.amazon.com/s3/buckets/dsd-deployments?region=eu-west-1&quot; class=&quot;bucket-name&quot;&gt;dsd-deployments&lt;/a&gt;" style="text;html=1;strokeColor=none;fillColor=none;align=center;verticalAlign=middle;whiteSpace=wrap;rounded=0;" vertex="1" parent="9bl6LSLvuRnka31dkk5S-1">
          <mxGeometry x="99" y="678" width="120" height="30" as="geometry" />
        </mxCell>
        <mxCell id="9bl6LSLvuRnka31dkk5S-19" value="Elastic Beanstalk container" style="points=[[0,0],[0.25,0],[0.5,0],[0.75,0],[1,0],[1,0.25],[1,0.5],[1,0.75],[1,1],[0.75,1],[0.5,1],[0.25,1],[0,1],[0,0.75],[0,0.5],[0,0.25]];outlineConnect=0;gradientColor=none;html=1;whiteSpace=wrap;fontSize=12;fontStyle=0;container=1;pointerEvents=0;collapsible=0;recursiveResize=0;shape=mxgraph.aws4.group;grIcon=mxgraph.aws4.group_elastic_beanstalk;strokeColor=#D86613;fillColor=none;verticalAlign=top;align=left;spacingLeft=30;fontColor=#D86613;dashed=0;" vertex="1" parent="9bl6LSLvuRnka31dkk5S-1">
          <mxGeometry x="890" y="200" width="250" height="250" as="geometry" />
        </mxCell>
        <mxCell id="9bl6LSLvuRnka31dkk5S-20" value="Auto Scaling group" style="points=[[0,0],[0.25,0],[0.5,0],[0.75,0],[1,0],[1,0.25],[1,0.5],[1,0.75],[1,1],[0.75,1],[0.5,1],[0.25,1],[0,1],[0,0.75],[0,0.5],[0,0.25]];outlineConnect=0;gradientColor=none;html=1;whiteSpace=wrap;fontSize=12;fontStyle=0;container=1;pointerEvents=0;collapsible=0;recursiveResize=0;shape=mxgraph.aws4.groupCenter;grIcon=mxgraph.aws4.group_auto_scaling_group;grStroke=1;strokeColor=#D86613;fillColor=none;verticalAlign=top;align=center;fontColor=#D86613;dashed=1;spacingTop=25;" vertex="1" parent="9bl6LSLvuRnka31dkk5S-19">
          <mxGeometry x="10" y="40" width="230" height="200" as="geometry" />
        </mxCell>
        <mxCell id="9bl6LSLvuRnka31dkk5S-21" value="" style="sketch=0;points=[[0,0,0],[0.25,0,0],[0.5,0,0],[0.75,0,0],[1,0,0],[0,1,0],[0.25,1,0],[0.5,1,0],[0.75,1,0],[1,1,0],[0,0.25,0],[0,0.5,0],[0,0.75,0],[1,0.25,0],[1,0.5,0],[1,0.75,0]];outlineConnect=0;fontColor=#232F3E;gradientColor=#F78E04;gradientDirection=north;fillColor=#D05C17;strokeColor=#ffffff;dashed=0;verticalLabelPosition=bottom;verticalAlign=top;align=center;html=1;fontSize=12;fontStyle=0;aspect=fixed;shape=mxgraph.aws4.resourceIcon;resIcon=mxgraph.aws4.compute;" vertex="1" parent="9bl6LSLvuRnka31dkk5S-20">
          <mxGeometry y="162" width="38" height="38" as="geometry" />
        </mxCell>
        <mxCell id="9bl6LSLvuRnka31dkk5S-22" value="" style="sketch=0;outlineConnect=0;fontColor=#232F3E;gradientColor=none;fillColor=#D45B07;strokeColor=none;dashed=0;verticalLabelPosition=bottom;verticalAlign=top;align=center;html=1;fontSize=12;fontStyle=0;aspect=fixed;pointerEvents=1;shape=mxgraph.aws4.t2_instance;" vertex="1" parent="9bl6LSLvuRnka31dkk5S-20">
          <mxGeometry x="30" y="70" width="48" height="48" as="geometry" />
        </mxCell>
        <mxCell id="9bl6LSLvuRnka31dkk5S-23" value="" style="sketch=0;outlineConnect=0;fontColor=#232F3E;gradientColor=none;fillColor=#D45B07;strokeColor=none;dashed=0;verticalLabelPosition=bottom;verticalAlign=top;align=center;html=1;fontSize=12;fontStyle=0;aspect=fixed;pointerEvents=1;shape=mxgraph.aws4.t2_instance;" vertex="1" parent="9bl6LSLvuRnka31dkk5S-20">
          <mxGeometry x="150" y="71" width="48" height="48" as="geometry" />
        </mxCell>
        <UserObject label="&lt;div&gt;&lt;a href=&quot;https://eu-west-1.console.aws.amazon.com/ec2/home?region=eu-west-1#InstanceDetails:instanceId=i-0da8f336cd20bca66&quot;&gt;Production-Gear&lt;/a&gt;&lt;/div&gt;" id="9bl6LSLvuRnka31dkk5S-24">
          <mxCell style="text;html=1;strokeColor=none;fillColor=none;whiteSpace=wrap;align=center;verticalAlign=middle;fontColor=#0000EE;fontStyle=4;" vertex="1" parent="9bl6LSLvuRnka31dkk5S-20">
            <mxGeometry x="4" y="110" width="100" height="40" as="geometry" />
          </mxCell>
        </UserObject>
        <UserObject label="&lt;div&gt;&lt;a href=&quot;https://eu-west-1.console.aws.amazon.com/ec2/home?region=eu-west-1#InstanceDetails:instanceId=i-05818adc1a14a9c6a&quot;&gt;Development-Gear&lt;/a&gt;&lt;/div&gt;" id="9bl6LSLvuRnka31dkk5S-25">
          <mxCell style="text;html=1;strokeColor=none;fillColor=none;whiteSpace=wrap;align=center;verticalAlign=middle;fontColor=#0000EE;fontStyle=4;" vertex="1" parent="9bl6LSLvuRnka31dkk5S-20">
            <mxGeometry x="120" y="110" width="110" height="40" as="geometry" />
          </mxCell>
        </UserObject>
        <mxCell id="9bl6LSLvuRnka31dkk5S-26" value="eu-west-1" style="text;strokeColor=none;fillColor=none;html=1;fontSize=24;fontStyle=1;verticalAlign=middle;align=center;" vertex="1" parent="9bl6LSLvuRnka31dkk5S-1">
          <mxGeometry x="56.5" y="99.5" width="100" height="40" as="geometry" />
        </mxCell>
        <mxCell id="9bl6LSLvuRnka31dkk5S-27" style="edgeStyle=orthogonalEdgeStyle;rounded=0;orthogonalLoop=1;jettySize=auto;html=1;exitX=0.5;exitY=0;exitDx=0;exitDy=0;exitPerimeter=0;" edge="1" parent="9bl6LSLvuRnka31dkk5S-1" source="9bl6LSLvuRnka31dkk5S-28" target="9bl6LSLvuRnka31dkk5S-32">
          <mxGeometry relative="1" as="geometry" />
        </mxCell>
        <mxCell id="9bl6LSLvuRnka31dkk5S-28" value="" style="sketch=0;points=[[0,0,0],[0.25,0,0],[0.5,0,0],[0.75,0,0],[1,0,0],[0,1,0],[0.25,1,0],[0.5,1,0],[0.75,1,0],[1,1,0],[0,0.25,0],[0,0.5,0],[0,0.75,0],[1,0.25,0],[1,0.5,0],[1,0.75,0]];outlineConnect=0;fontColor=#232F3E;gradientColor=#60A337;gradientDirection=north;fillColor=#277116;strokeColor=#ffffff;dashed=0;verticalLabelPosition=bottom;verticalAlign=top;align=center;html=1;fontSize=12;fontStyle=0;aspect=fixed;shape=mxgraph.aws4.resourceIcon;resIcon=mxgraph.aws4.s3;" vertex="1" parent="9bl6LSLvuRnka31dkk5S-1">
          <mxGeometry x="621" y="690" width="78" height="78" as="geometry" />
        </mxCell>
        <mxCell id="9bl6LSLvuRnka31dkk5S-29" value="&lt;a style=&quot;background-color: rgb(255, 255, 255); text-decoration-line: none; font-family: &amp;quot;Amazon Ember&amp;quot;, &amp;quot;Helvetica Neue&amp;quot;, Roboto, Arial, sans-serif; font-size: 14px; text-align: left;&quot; href=&quot;https://s3.console.aws.amazon.com/s3/buckets/nativedsd-media?region=eu-west-1&quot; class=&quot;bucket-name&quot;&gt;nativedsd-media&lt;/a&gt;" style="text;html=1;strokeColor=none;fillColor=none;align=center;verticalAlign=middle;whiteSpace=wrap;rounded=0;" vertex="1" parent="9bl6LSLvuRnka31dkk5S-1">
          <mxGeometry x="600" y="768" width="120" height="30" as="geometry" />
        </mxCell>
        <mxCell id="9bl6LSLvuRnka31dkk5S-30" style="edgeStyle=orthogonalEdgeStyle;rounded=0;orthogonalLoop=1;jettySize=auto;html=1;exitX=0.5;exitY=0;exitDx=0;exitDy=0;exitPerimeter=0;entryX=0.5;entryY=1;entryDx=0;entryDy=0;" edge="1" parent="9bl6LSLvuRnka31dkk5S-1" source="9bl6LSLvuRnka31dkk5S-31" target="9bl6LSLvuRnka31dkk5S-24">
          <mxGeometry relative="1" as="geometry">
            <Array as="points">
              <mxPoint x="801" y="490" />
              <mxPoint x="954" y="490" />
            </Array>
          </mxGeometry>
        </mxCell>
        <mxCell id="9bl6LSLvuRnka31dkk5S-31" value="" style="sketch=0;points=[[0,0,0],[0.25,0,0],[0.5,0,0],[0.75,0,0],[1,0,0],[0,1,0],[0.25,1,0],[0.5,1,0],[0.75,1,0],[1,1,0],[0,0.25,0],[0,0.5,0],[0,0.75,0],[1,0.25,0],[1,0.5,0],[1,0.75,0]];outlineConnect=0;fontColor=#232F3E;gradientColor=#945DF2;gradientDirection=north;fillColor=#5A30B5;strokeColor=#ffffff;dashed=0;verticalLabelPosition=bottom;verticalAlign=top;align=center;html=1;fontSize=12;fontStyle=0;aspect=fixed;shape=mxgraph.aws4.resourceIcon;resIcon=mxgraph.aws4.cloudfront;" vertex="1" parent="9bl6LSLvuRnka31dkk5S-1">
          <mxGeometry x="762" y="520" width="78" height="78" as="geometry" />
        </mxCell>
        <UserObject label="Media files" link="https://us-east-1.console.aws.amazon.com/cloudfront/v3/home?region=eu-west-1#/distributions/E209H0S8363BU0" id="9bl6LSLvuRnka31dkk5S-32">
          <mxCell style="text;html=1;strokeColor=none;fillColor=none;whiteSpace=wrap;align=center;verticalAlign=middle;fontColor=#0000EE;fontStyle=4;fontSize=15;" vertex="1" parent="9bl6LSLvuRnka31dkk5S-1">
            <mxGeometry x="756.5" y="600" width="89" height="40" as="geometry" />
          </mxCell>
        </UserObject>
      </root>
    </mxGraphModel>
  </diagram>
  <diagram name="api.nativedsd.com" id="EWDbxmWuAW0LKW5PTRDq">
    <mxGraphModel dx="1400" dy="825" grid="1" gridSize="10" guides="1" tooltips="1" connect="1" arrows="1" fold="1" page="1" pageScale="1" pageWidth="1169" pageHeight="827" math="0" shadow="0">
      <root>
        <mxCell id="IQxRQ3JkhoQPW3_qvAHN-0" />
        <mxCell id="IQxRQ3JkhoQPW3_qvAHN-1" parent="IQxRQ3JkhoQPW3_qvAHN-0" />
        <mxCell id="IQxRQ3JkhoQPW3_qvAHN-2" value="api.nativedsd.com" style="text;html=1;resizable=0;points=[];autosize=1;align=left;verticalAlign=top;spacingTop=-4;fontSize=30;fontStyle=1" parent="IQxRQ3JkhoQPW3_qvAHN-1" vertex="1">
          <mxGeometry x="56.5" y="64.5" width="290" height="40" as="geometry" />
        </mxCell>
        <mxCell id="IQxRQ3JkhoQPW3_qvAHN-3" value="" style="line;strokeWidth=2;html=1;fontSize=14;" parent="IQxRQ3JkhoQPW3_qvAHN-1" vertex="1">
          <mxGeometry x="52.5" y="139.5" width="1097.5" height="10" as="geometry" />
        </mxCell>
        <mxCell id="IQxRQ3JkhoQPW3_qvAHN-5" value="" style="verticalLabelPosition=bottom;verticalAlign=top;html=1;shape=mxgraph.basic.patternFillRect;fillStyle=hor;step=5;fillStrokeWidth=0.2;fillStrokeColor=#dddddd;" parent="IQxRQ3JkhoQPW3_qvAHN-1" vertex="1">
          <mxGeometry x="120" y="200" width="320" height="250" as="geometry" />
        </mxCell>
        <mxCell id="IQxRQ3JkhoQPW3_qvAHN-6" value="" style="sketch=0;points=[[0,0,0],[0.25,0,0],[0.5,0,0],[0.75,0,0],[1,0,0],[0,1,0],[0.25,1,0],[0.5,1,0],[0.75,1,0],[1,1,0],[0,0.25,0],[0,0.5,0],[0,0.75,0],[1,0.25,0],[1,0.5,0],[1,0.75,0]];outlineConnect=0;fontColor=#232F3E;gradientColor=#F78E04;gradientDirection=north;fillColor=#D05C17;strokeColor=#ffffff;dashed=0;verticalLabelPosition=bottom;verticalAlign=top;align=center;html=1;fontSize=12;fontStyle=0;aspect=fixed;shape=mxgraph.aws4.resourceIcon;resIcon=mxgraph.aws4.elastic_beanstalk;" parent="IQxRQ3JkhoQPW3_qvAHN-1" vertex="1">
          <mxGeometry x="130" y="210" width="78" height="78" as="geometry" />
        </mxCell>
        <mxCell id="IQxRQ3JkhoQPW3_qvAHN-7" value="&lt;a style=&quot;background-color: rgb(255, 255, 255); border-collapse: separate; border-spacing: 0px; caption-side: top; cursor: auto; direction: ltr; empty-cells: show; font-variant-numeric: normal; font-variant-east-asian: normal; font-variant-alternates: normal; font-stretch: normal; hyphens: none; list-style: outside none disc; tab-size: 8; text-align: left; text-align-last: auto; text-shadow: none; visibility: visible; box-sizing: border-box; font-size: 20px; line-height: var(--font-body-m-line-height-i7xxvv,22px); font-family: &amp;quot;Amazon Ember&amp;quot;, &amp;quot;Helvetica Neue&amp;quot;, Roboto, Arial, sans-serif; -webkit-font-smoothing: inherit; display: inline; text-decoration-line: none; text-decoration-color: transparent; transition-property: color, text-decoration, -webkit-text-decoration; transition-duration: var(--motion-duration-refresh-only-medium-5flen2,165ms);&quot; data-awsui-focus-visible=&quot;true&quot; href=&quot;https://eu-west-1.console.aws.amazon.com/elasticbeanstalk/home?region=eu-west-1#/application/overview?applicationName=api.nativedsd.com&quot; class=&quot;awsui_link_4c84z_16m2q_93 awsui_variant-secondary_4c84z_16m2q_140 awsui_font-size-body-m_4c84z_16m2q_414&quot;&gt;api.nativedsd.com&lt;/a&gt;" style="swimlane;fontStyle=0;childLayout=stackLayout;horizontal=1;startSize=50;horizontalStack=0;resizeParent=1;resizeParentMax=0;resizeLast=0;collapsible=1;marginBottom=0;whiteSpace=wrap;html=1;fontSize=20;" parent="IQxRQ3JkhoQPW3_qvAHN-1" vertex="1">
          <mxGeometry x="230" y="210" width="200" height="170" as="geometry" />
        </mxCell>
        <mxCell id="IQxRQ3JkhoQPW3_qvAHN-8" value="&lt;a style=&quot;background-color: rgb(255, 255, 255); border-collapse: separate; border-spacing: 0px; caption-side: top; cursor: auto; direction: ltr; empty-cells: show; font-variant-numeric: normal; font-variant-east-asian: normal; font-variant-alternates: normal; font-stretch: normal; hyphens: none; list-style: outside none disc; tab-size: 8; text-align-last: auto; text-shadow: none; visibility: visible; box-sizing: border-box; font-size: 14px; line-height: var(--font-body-m-line-height-i7xxvv,22px); font-family: &amp;quot;Amazon Ember&amp;quot;, &amp;quot;Helvetica Neue&amp;quot;, Roboto, Arial, sans-serif; -webkit-font-smoothing: inherit; display: inline; text-decoration-line: none; text-decoration-color: transparent; transition-property: color, text-decoration, -webkit-text-decoration; transition-duration: var(--motion-duration-refresh-only-medium-5flen2,165ms);&quot; data-awsui-focus-visible=&quot;true&quot; href=&quot;https://eu-west-1.console.aws.amazon.com/elasticbeanstalk/home?region=eu-west-1#/environment/dashboard?applicationName=api.nativedsd.com&amp;amp;environmentId=e-fmmmwcbpaf&quot; class=&quot;awsui_link_4c84z_16m2q_93 awsui_variant-secondary_4c84z_16m2q_140 awsui_font-size-body-m_4c84z_16m2q_414&quot;&gt;dsd-api-production&lt;/a&gt;" style="text;strokeColor=none;fillColor=none;align=left;verticalAlign=middle;spacingLeft=4;spacingRight=4;overflow=hidden;points=[[0,0.5],[1,0.5]];portConstraint=eastwest;rotatable=0;whiteSpace=wrap;html=1;" parent="IQxRQ3JkhoQPW3_qvAHN-7" vertex="1">
          <mxGeometry y="50" width="200" height="60" as="geometry" />
        </mxCell>
        <mxCell id="IQxRQ3JkhoQPW3_qvAHN-10" value="&lt;a style=&quot;background-color: rgb(255, 255, 255); border-collapse: separate; border-spacing: 0px; caption-side: top; cursor: auto; direction: ltr; empty-cells: show; font-variant-numeric: normal; font-variant-east-asian: normal; font-variant-alternates: normal; font-stretch: normal; hyphens: none; list-style: outside none disc; tab-size: 8; text-align-last: auto; text-shadow: none; visibility: visible; box-sizing: border-box; font-size: 14px; line-height: var(--font-body-m-line-height-i7xxvv,22px); font-family: &amp;quot;Amazon Ember&amp;quot;, &amp;quot;Helvetica Neue&amp;quot;, Roboto, Arial, sans-serif; -webkit-font-smoothing: inherit; display: inline; text-decoration-line: none; text-decoration-color: transparent; transition-property: color, text-decoration, -webkit-text-decoration; transition-duration: var(--motion-duration-refresh-only-medium-5flen2,165ms);&quot; data-awsui-focus-visible=&quot;true&quot; href=&quot;https://eu-west-1.console.aws.amazon.com/elasticbeanstalk/home?region=eu-west-1#/environment/dashboard?applicationName=api.nativedsd.com&amp;amp;environmentId=e-ib75x3m3hs&quot; class=&quot;awsui_link_4c84z_16m2q_93 awsui_variant-secondary_4c84z_16m2q_140 awsui_font-size-body-m_4c84z_16m2q_414&quot;&gt;&lt;font color=&quot;#a680b8&quot;&gt;Production-API&lt;/font&gt;&lt;/a&gt;" style="text;strokeColor=none;fillColor=none;align=left;verticalAlign=middle;spacingLeft=4;spacingRight=4;overflow=hidden;points=[[0,0.5],[1,0.5]];portConstraint=eastwest;rotatable=0;whiteSpace=wrap;html=1;" parent="IQxRQ3JkhoQPW3_qvAHN-7" vertex="1">
          <mxGeometry y="110" width="200" height="60" as="geometry" />
        </mxCell>
        <mxCell id="IQxRQ3JkhoQPW3_qvAHN-11" style="edgeStyle=orthogonalEdgeStyle;rounded=0;orthogonalLoop=1;jettySize=auto;html=1;exitX=1;exitY=0.5;exitDx=0;exitDy=0;exitPerimeter=0;entryX=0;entryY=0.5;entryDx=0;entryDy=0;entryPerimeter=0;" parent="IQxRQ3JkhoQPW3_qvAHN-1" source="IQxRQ3JkhoQPW3_qvAHN-5" target="k5rZ2L3S78HLD1oBHara-0" edge="1">
          <mxGeometry relative="1" as="geometry">
            <mxPoint x="810" y="325" as="sourcePoint" />
          </mxGeometry>
        </mxCell>
        <mxCell id="IQxRQ3JkhoQPW3_qvAHN-16" style="edgeStyle=orthogonalEdgeStyle;rounded=0;orthogonalLoop=1;jettySize=auto;html=1;exitX=0.5;exitY=0;exitDx=0;exitDy=0;exitPerimeter=0;entryX=0.5;entryY=1;entryDx=0;entryDy=0;entryPerimeter=0;" parent="IQxRQ3JkhoQPW3_qvAHN-1" source="IQxRQ3JkhoQPW3_qvAHN-17" target="IQxRQ3JkhoQPW3_qvAHN-5" edge="1">
          <mxGeometry relative="1" as="geometry" />
        </mxCell>
        <mxCell id="IQxRQ3JkhoQPW3_qvAHN-17" value="" style="sketch=0;points=[[0,0,0],[0.25,0,0],[0.5,0,0],[0.75,0,0],[1,0,0],[0,1,0],[0.25,1,0],[0.5,1,0],[0.75,1,0],[1,1,0],[0,0.25,0],[0,0.5,0],[0,0.75,0],[1,0.25,0],[1,0.5,0],[1,0.75,0]];outlineConnect=0;fontColor=#232F3E;gradientColor=#60A337;gradientDirection=north;fillColor=#277116;strokeColor=#ffffff;dashed=0;verticalLabelPosition=bottom;verticalAlign=top;align=center;html=1;fontSize=12;fontStyle=0;aspect=fixed;shape=mxgraph.aws4.resourceIcon;resIcon=mxgraph.aws4.s3;" parent="IQxRQ3JkhoQPW3_qvAHN-1" vertex="1">
          <mxGeometry x="120" y="600" width="78" height="78" as="geometry" />
        </mxCell>
        <mxCell id="IQxRQ3JkhoQPW3_qvAHN-18" value="&lt;a style=&quot;background-color: rgb(255, 255, 255); text-decoration-line: none; font-family: &amp;quot;Amazon Ember&amp;quot;, &amp;quot;Helvetica Neue&amp;quot;, Roboto, Arial, sans-serif; font-size: 14px; text-align: left;&quot; href=&quot;https://s3.console.aws.amazon.com/s3/buckets/dsd-deployments?region=eu-west-1&quot; class=&quot;bucket-name&quot;&gt;dsd-deployments&lt;/a&gt;" style="text;html=1;strokeColor=none;fillColor=none;align=center;verticalAlign=middle;whiteSpace=wrap;rounded=0;" parent="IQxRQ3JkhoQPW3_qvAHN-1" vertex="1">
          <mxGeometry x="99" y="678" width="120" height="30" as="geometry" />
        </mxCell>
        <mxCell id="IQxRQ3JkhoQPW3_qvAHN-19" value="Elastic Beanstalk container" style="points=[[0,0],[0.25,0],[0.5,0],[0.75,0],[1,0],[1,0.25],[1,0.5],[1,0.75],[1,1],[0.75,1],[0.5,1],[0.25,1],[0,1],[0,0.75],[0,0.5],[0,0.25]];outlineConnect=0;gradientColor=none;html=1;whiteSpace=wrap;fontSize=12;fontStyle=0;container=1;pointerEvents=0;collapsible=0;recursiveResize=0;shape=mxgraph.aws4.group;grIcon=mxgraph.aws4.group_elastic_beanstalk;strokeColor=#D86613;fillColor=none;verticalAlign=top;align=left;spacingLeft=30;fontColor=#D86613;dashed=0;" parent="IQxRQ3JkhoQPW3_qvAHN-1" vertex="1">
          <mxGeometry x="850" y="200" width="290" height="250" as="geometry" />
        </mxCell>
        <mxCell id="IQxRQ3JkhoQPW3_qvAHN-20" value="Auto Scaling group" style="points=[[0,0],[0.25,0],[0.5,0],[0.75,0],[1,0],[1,0.25],[1,0.5],[1,0.75],[1,1],[0.75,1],[0.5,1],[0.25,1],[0,1],[0,0.75],[0,0.5],[0,0.25]];outlineConnect=0;gradientColor=none;html=1;whiteSpace=wrap;fontSize=12;fontStyle=0;container=1;pointerEvents=0;collapsible=0;recursiveResize=0;shape=mxgraph.aws4.groupCenter;grIcon=mxgraph.aws4.group_auto_scaling_group;grStroke=1;strokeColor=#D86613;fillColor=none;verticalAlign=top;align=center;fontColor=#D86613;dashed=1;spacingTop=25;" parent="IQxRQ3JkhoQPW3_qvAHN-19" vertex="1">
          <mxGeometry x="10" y="40" width="270" height="200" as="geometry" />
        </mxCell>
        <mxCell id="IQxRQ3JkhoQPW3_qvAHN-21" value="" style="sketch=0;points=[[0,0,0],[0.25,0,0],[0.5,0,0],[0.75,0,0],[1,0,0],[0,1,0],[0.25,1,0],[0.5,1,0],[0.75,1,0],[1,1,0],[0,0.25,0],[0,0.5,0],[0,0.75,0],[1,0.25,0],[1,0.5,0],[1,0.75,0]];outlineConnect=0;fontColor=#232F3E;gradientColor=#F78E04;gradientDirection=north;fillColor=#D05C17;strokeColor=#ffffff;dashed=0;verticalLabelPosition=bottom;verticalAlign=top;align=center;html=1;fontSize=12;fontStyle=0;aspect=fixed;shape=mxgraph.aws4.resourceIcon;resIcon=mxgraph.aws4.compute;" parent="IQxRQ3JkhoQPW3_qvAHN-20" vertex="1">
          <mxGeometry y="162" width="38" height="38" as="geometry" />
        </mxCell>
        <mxCell id="IQxRQ3JkhoQPW3_qvAHN-23" value="" style="sketch=0;outlineConnect=0;fontColor=#232F3E;gradientColor=none;fillColor=#D45B07;strokeColor=none;dashed=0;verticalLabelPosition=bottom;verticalAlign=top;align=center;html=1;fontSize=12;fontStyle=0;aspect=fixed;pointerEvents=1;shape=mxgraph.aws4.t4g_instance;" parent="IQxRQ3JkhoQPW3_qvAHN-20" vertex="1">
          <mxGeometry x="192" y="71" width="48" height="48" as="geometry" />
        </mxCell>
        <UserObject label="&lt;a href=&quot;https://eu-west-1.console.aws.amazon.com/ec2/home?region=eu-west-1#InstanceDetails:instanceId=i-05f9475e6edd4b611&quot; style=&quot;font-size: 14px;&quot;&gt;dsd-api-production&lt;/a&gt;" id="IQxRQ3JkhoQPW3_qvAHN-24">
          <mxCell style="text;html=1;strokeColor=none;fillColor=none;whiteSpace=wrap;align=center;verticalAlign=middle;fontColor=#0000EE;fontStyle=4;fontSize=14;" parent="IQxRQ3JkhoQPW3_qvAHN-20" vertex="1">
            <mxGeometry x="4" y="110" width="126" height="40" as="geometry" />
          </mxCell>
        </UserObject>
        <UserObject label="&lt;font color=&quot;#a680b8&quot; style=&quot;border-color: var(--border-color); font-size: 14px;&quot;&gt;&lt;a href=&quot;https://eu-west-1.console.aws.amazon.com/ec2/home?region=eu-west-1#InstanceDetails:instanceId=i-04770341ee47c5e14&quot;&gt;Production-API&lt;/a&gt;&lt;/font&gt;" id="IQxRQ3JkhoQPW3_qvAHN-25">
          <mxCell style="text;html=1;strokeColor=none;fillColor=none;whiteSpace=wrap;align=center;verticalAlign=middle;fontColor=#0000EE;fontStyle=4;" parent="IQxRQ3JkhoQPW3_qvAHN-20" vertex="1">
            <mxGeometry x="163" y="110" width="106" height="40" as="geometry" />
          </mxCell>
        </UserObject>
        <mxCell id="yCMX5e4ZtBhfyvoTLAqp-0" value="" style="sketch=0;outlineConnect=0;fontColor=#232F3E;gradientColor=none;fillColor=#D45B07;strokeColor=none;dashed=0;verticalLabelPosition=bottom;verticalAlign=top;align=center;html=1;fontSize=12;fontStyle=0;aspect=fixed;pointerEvents=1;shape=mxgraph.aws4.t4g_instance;" parent="IQxRQ3JkhoQPW3_qvAHN-20" vertex="1">
          <mxGeometry x="30" y="71" width="48" height="48" as="geometry" />
        </mxCell>
        <mxCell id="IQxRQ3JkhoQPW3_qvAHN-26" value="eu-west-1" style="text;strokeColor=none;fillColor=none;html=1;fontSize=24;fontStyle=1;verticalAlign=middle;align=center;" parent="IQxRQ3JkhoQPW3_qvAHN-1" vertex="1">
          <mxGeometry x="56.5" y="99.5" width="100" height="40" as="geometry" />
        </mxCell>
        <mxCell id="k5rZ2L3S78HLD1oBHara-4" style="edgeStyle=orthogonalEdgeStyle;rounded=0;orthogonalLoop=1;jettySize=auto;html=1;exitX=1;exitY=0.5;exitDx=0;exitDy=0;exitPerimeter=0;" edge="1" parent="IQxRQ3JkhoQPW3_qvAHN-1" source="k5rZ2L3S78HLD1oBHara-0" target="IQxRQ3JkhoQPW3_qvAHN-20">
          <mxGeometry relative="1" as="geometry" />
        </mxCell>
        <mxCell id="k5rZ2L3S78HLD1oBHara-0" value="" style="verticalLabelPosition=bottom;verticalAlign=top;html=1;shape=mxgraph.basic.patternFillRect;fillStyle=hor;step=5;fillStrokeWidth=0.2;fillStrokeColor=#dddddd;" vertex="1" parent="IQxRQ3JkhoQPW3_qvAHN-1">
          <mxGeometry x="500" y="230" width="290" height="130" as="geometry" />
        </mxCell>
        <mxCell id="k5rZ2L3S78HLD1oBHara-1" value="" style="sketch=0;points=[[0,0,0],[0.25,0,0],[0.5,0,0],[0.75,0,0],[1,0,0],[0,1,0],[0.25,1,0],[0.5,1,0],[0.75,1,0],[1,1,0],[0,0.25,0],[0,0.5,0],[0,0.75,0],[1,0.25,0],[1,0.5,0],[1,0.75,0]];outlineConnect=0;fontColor=#232F3E;gradientColor=#4D72F3;gradientDirection=north;fillColor=#3334B9;strokeColor=#ffffff;dashed=0;verticalLabelPosition=bottom;verticalAlign=top;align=center;html=1;fontSize=12;fontStyle=0;aspect=fixed;shape=mxgraph.aws4.resourceIcon;resIcon=mxgraph.aws4.aurora;" vertex="1" parent="IQxRQ3JkhoQPW3_qvAHN-1">
          <mxGeometry x="510" y="240" width="78" height="78" as="geometry" />
        </mxCell>
        <mxCell id="k5rZ2L3S78HLD1oBHara-2" value="&lt;a style=&quot;background-color: rgb(241, 250, 255); border-radius: 2px; color: var(--color-text-link-hover-z15m9s, #0073bb); padding: 0px; text-decoration-line: underline; cursor: pointer; border-collapse: separate; border-spacing: 0px; caption-side: top; direction: ltr; empty-cells: show; font-variant-numeric: normal; font-variant-east-asian: normal; font-variant-alternates: normal; font-stretch: normal; hyphens: none; list-style: outside none disc; tab-size: 8; text-align-last: auto; text-shadow: none; visibility: visible; box-sizing: border-box; font-size: 20px; line-height: var(--font-body-m-line-height-9vkzhc, 22px); font-family: &amp;quot;Amazon Ember&amp;quot;, &amp;quot;Helvetica Neue&amp;quot;, Roboto, Arial, sans-serif; -webkit-font-smoothing: inherit; display: inline; transition-property: color, text-decoration, -webkit-text-decoration; transition-duration: var(--motion-duration-refresh-only-medium-smx8a1, 165ms);&quot; tabindex=&quot;0&quot; role=&quot;button&quot; data-analytics-funnel-value=&quot;link220-1691794979420-6335&quot; aria-labelledby=&quot;&quot; class=&quot;awsui_link_4c84z_144la_93 awsui_variant-secondary_4c84z_144la_140 awsui_font-size-body-m_4c84z_144la_414&quot; data-testid=&quot;database-identifier&quot; data-analytics-type=&quot;eventDetail&quot; data-analytics=&quot;{&amp;quot;eventDetailName&amp;quot;:&amp;quot;DbListTableDbNameColumn&amp;quot;,&amp;quot;role&amp;quot;:&amp;quot;Regional cluster&amp;quot;}&quot; id=&quot;link-self221-1691794979420-311&quot;&gt;nativedsd&lt;/a&gt;" style="text;html=1;strokeColor=none;fillColor=none;align=left;verticalAlign=middle;whiteSpace=wrap;rounded=0;fontSize=20;" vertex="1" parent="IQxRQ3JkhoQPW3_qvAHN-1">
          <mxGeometry x="619" y="250" width="100" height="30" as="geometry" />
        </mxCell>
        <mxCell id="k5rZ2L3S78HLD1oBHara-3" value="&lt;ul&gt;&lt;li style=&quot;font-size: 16px;&quot;&gt;nativedsd&lt;/li&gt;&lt;/ul&gt;" style="text;strokeColor=none;fillColor=none;html=1;whiteSpace=wrap;verticalAlign=middle;overflow=hidden;" vertex="1" parent="IQxRQ3JkhoQPW3_qvAHN-1">
          <mxGeometry x="570" y="270" width="198" height="80" as="geometry" />
        </mxCell>
      </root>
    </mxGraphModel>
  </diagram>
</mxfile>
